<?xml version="1.0" encoding="UTF-8" standalone="no"?>
<!-- Created with Inkscape (http://www.inkscape.org/) -->

<svg
   version="1.1"
   id="svg1"
   width="628.65308"
   height="526.14618"
   viewBox="0 0 628.65308 526.14618"
   xmlns="http://www.w3.org/2000/svg"
   xmlns:svg="http://www.w3.org/2000/svg">
  <defs
     id="defs1" />
  <g
     id="g1"
     transform="translate(-375.08353,-387.81708)">
    <g
       id="g20"
       transform="translate(328.66107,523.6503)">
      <path
         style="fill:#fadb51"
         d="m 585.91382,343.47272 c -5.79159,-1.33072 -9,-2.94439 -9,-4.52657 0,-0.82312 -1.8,-7.65218 -4,-15.17569 -4.84439,-16.56672 -4.86141,-16.84662 -1.03259,-16.98195 1.62957,-0.0576 4.55991,-1.32285 6.51187,-2.81168 l 3.54902,-2.70697 2.94402,6.56169 c 3.39979,7.57748 4.74536,8.17939 5.64921,2.52701 1.8171,-11.36349 11.19449,-12.72383 18.4706,-2.67945 3.66308,5.05673 4.87929,5.24851 6.31865,0.99633 3.15851,-9.33092 13.14412,-9.06992 17.12075,0.44749 1.9032,4.555 4.04181,4.08263 6.69918,-1.4797 2.66946,-5.58762 4.78703,-6.32317 8.24592,-2.86428 2.79036,2.79036 3.35782,5.14847 1.02337,4.25265 -0.82812,-0.31778 -1.49876,-0.0298 -1.49722,0.64301 0.003,1.18063 -1.09869,3.73756 -6.11516,14.19674 -3.01087,6.27757 -11.73779,13.45652 -20.79084,17.10297 -5.60676,2.25833 -8.3977,2.70554 -18.59678,2.97984 -6.6,0.17751 -13.575,-0.0391 -15.5,-0.48144 z m -40.98419,-5.06236 c -6.08136,-6.5873 -6.30019,-13.1547 -0.48695,-14.61373 3.83195,-0.96176 6.51665,0.11119 16.09095,6.4308 8.41185,5.55232 14.84689,11.19488 11.38019,9.97871 -1.90484,-0.66825 -18.90754,0.67051 -21.29049,1.67637 -1.34732,0.56871 -2.7566,-0.29071 -5.6937,-3.47215 z m 16.90801,-56.46694 c -1.85996,-8.31119 1.98334,-12.81098 8.13157,-9.52055 3.74211,2.00272 6.87858,11.89531 3.69461,11.65301 -2.46348,-0.18747 -8.75,1.55741 -8.75,2.42864 0,0.48879 -0.41773,0.88871 -0.92828,0.88871 -0.51056,0 -1.47711,-2.45241 -2.1479,-5.44981 z"
         id="path26" />
      <path
         style="fill:#fcc92b"
         d="m 587.96718,374.37129 c -7.99053,-2.76306 -13.24493,-6.33488 -24.98694,-16.98553 -12.84018,-11.64675 -21.74212,-20.74237 -16.94009,-17.30866 2.47419,1.76918 3.55767,1.99876 5.66025,1.19935 1.43019,-0.54375 6.67254,-1.118 11.64967,-1.27609 l 9.04933,-0.28745 -2.20958,-2.38656 -2.20958,-2.38656 3.5,2.11085 3.5,2.11086 0.65032,-2.24572 c 0.59858,-2.06704 0.65825,-2.02799 0.75,0.49086 0.17077,4.6882 5.12231,6.10763 21.59968,6.19186 13.01984,0.0666 14.49535,-0.12242 21.07522,-2.69908 9.42097,-3.68922 18.22619,-10.81657 21.3124,-17.25124 5.01647,-10.45918 6.11785,-13.01611 6.11516,-14.19674 -0.002,-0.67277 0.6691,-0.96079 1.49722,-0.64301 2.31131,0.88694 1.7778,-1.45148 -0.95455,-4.18382 -1.35,-1.35 -2.09474,-2.45455 -1.65498,-2.45455 4.18138,0 10.95531,18.45079 14.13469,38.5 2.72332,17.17332 -1.37779,21.26398 -29.58239,29.50707 -21.52798,6.29178 -32.66893,7.4055 -41.95583,4.19416 z m -23.41719,-76.58996 c -1.87348,-6.93441 -3.10561,-12.90875 -2.73805,-13.27631 0.36757,-0.36756 0.6683,0.0817 0.6683,0.99837 0,0.91667 0.45,1.66667 1,1.66667 0.55,0 1,-0.39992 1,-0.88871 0,-0.76307 5.43527,-2.39953 8.5,-2.55919 0.55,-0.0287 1.23716,-0.91767 1.52703,-1.9756 0.45852,-1.67347 2.48142,3.36703 7.79521,19.4235 0.27303,0.825 0.14418,1.18196 -0.28633,0.79325 -0.43051,-0.38872 -2.26126,0.42096 -4.06833,1.79927 -1.80706,1.37832 -4.56402,2.59636 -6.12658,2.70676 -1.80887,0.1278 -3.02699,0.87632 -3.35295,2.06036 -0.2912,1.05777 -1.98076,-3.5769 -3.9183,-10.74837 z"
         id="path25" />
      <path
         style="fill:#0f93fb"
         d="m 463.92939,222.448 c -3.75918,-0.47012 -3.95287,-1.19059 -3.48981,-12.98075 l 0.32205,-8.19953 4.17795,-0.59186 c 2.29788,-0.32552 32.97796,-0.46074 68.17796,-0.30047 l 64,0.29139 0.28684,10.41821 c 0.21094,7.66142 -0.0537,10.63427 -1,11.23469 -1.25645,0.79719 -126.15917,0.91817 -132.47499,0.12832 z M 554.31416,57.72055 c -0.79542,-0.79543 -2.45893,-5.63293 -3.69668,-10.75 -7.56215,-31.26332 -15.93522,-48.4727346 -28.74026,-59.070725 -10.15161,-8.4019 -19.00994,-12.04081 -52.15173,-21.42342 -3.51563,-0.99529 -6.88833,-2.59712 -7.49489,-3.55962 -2.33859,-3.71093 0.31581,-5.05506 19.48958,-9.86916 20.56332,-5.16298 27.2179,-7.79326 36.53182,-14.43954 15.77128,-11.25414 24.08447,-26.96816 31.37222,-59.301325 3.40246,-15.0955 3.42006,-15.13997 5.99332,-15.13997 2.56832,0 2.60387,0.0902 5.56141,14.11322 5.94349,28.180675 11.75733,41.182615 23.92383,53.502715 11.48777,11.63279 22.90836,16.66192 52.01476,22.90502 13.11549,2.81317 16.51001,4.72329 14.63154,8.23325 -0.81849,1.52937 -4.1837,2.76522 -14.35038,5.27009 -27.56799,6.7922 -39.23787,12.22177 -50.28116,23.3939804 -11.57595,11.71109 -17.48631,24.1730446 -24.20256,51.0309646 -4.1854,16.73719 -5.19504,18.51029 -8.60082,15.10452 z m 3.30338,-52.7576446 c 0,-0.66214 2.05924,-5.43689 4.57608,-10.61057 7.20328,-14.8071904 18.71401,-25.2835504 33.76966,-30.7350704 3.33854,-1.20885 6.20463,-2.6016 6.3691,-3.09499 0.16446,-0.4934 -2.93661,-1.99865 -6.89128,-3.34501 -15.50603,-5.279 -26.53386,-15.62045 -34.95598,-32.78028 -2.80621,-5.71757 -5.45994,-10.02087 -5.89719,-9.56289 -0.43725,0.45798 -1.9545,3.71056 -3.37166,7.22796 -6.87478,17.06313 -21.148,30.30593 -38.84873,36.04416 -5.14384,1.66753 -4.71955,2.63881 2,4.57832 17.63318,5.08959 32.4539,19.6566 38.89812,38.2322504 1.62288,4.67799 4.35188,7.21526 4.35188,4.04612 z"
         id="path23" />
      <path
         d="m 463.89421,269.48404 0.29414,-7.26642 24.5,-0.28159 c 13.475,-0.15487 25.53275,-0.0287 26.795,0.28035 2.14895,0.52617 2.27622,0.98955 2,7.28159 l -0.295,6.71965 -26.79414,0.26642 -26.79414,0.26641 z m -0.20586,-29.26642 v -7.5 h 36.08333 c 19.84584,0 35.93334,0.36743 35.75,0.81652 -0.18333,0.44909 -3.53805,3.82409 -7.45493,7.5 l -7.1216,6.68348 h -28.6284 -28.6284 z m 75.44113,4.05517 c 1.06762,-0.85535 2.38012,-1.55517 2.91667,-1.55517 1.27054,0 0.70323,0.4619 -2.3578,1.91971 -2.35727,1.12265 -2.38918,1.10183 -0.55887,-0.36454 z"
         style="fill:#acd1f1"
         id="path1" />
      <path
         style="fill:#152439"
         d="m 583.60086,388.79292 c -11.68483,-3.16249 -20.48054,-8.3264 -30.69834,-18.02278 l -5.85137,-5.55277 -47.72891,-0.5 -47.72891,-0.5 -4.81364,-3 c -7.72788,-4.81624 -10.61267,-10.98071 -11.28275,-24.11002 -0.37584,-7.364 -0.93501,-10.71828 -1.84498,-11.06747 -0.71814,-0.27557 -8.18898,0.86005 -16.60189,2.52362 -28.93442,5.72148 -40.4584,6.65844 -81.29618,6.60982 -39.33733,-0.0468 -52.69095,-1.13909 -81,-6.62538 l -11,-2.1318 -7.22611,4.68361 c -28.2508,18.31078 -75.00781,34.40913 -105.45401,36.30762 l -9.68012,0.60361 -3.06988,-3.06988 c -4.64043,-4.64043 -4.09043,-6.82159 4.70829,-18.672 4.278,-5.76174 9.69339,-14.32166 12.0342,-19.02204 5.22386,-10.48957 12.17134,-30.87598 11.45532,-33.61404 -0.30072,-1.14994 -2.72197,-3.11688 -5.64706,-4.58747 -31.44894,-15.81094 -63.164038,-47.64237 -78.540098,-78.82818 -10.67656,-21.65426 -14.73369,-37.65139 -15.74517,-62.08265 -1.78332,-43.07439 10.6747,-77.662025 40.15035,-111.470785 37.638308,-43.1713797 100.147398,-73.76255 175.514288,-85.89449 45.2094,-7.27745 103.41075,-8.06371 150.5,-2.03316 15.46715,1.98082 36.89503,6.02771 41.76793,7.88833 5.80871,2.21795 6.07649,11.69249 0.42781,15.13671 -4.00895,2.44441 -6.07935,2.43839 -17.48467,-0.0509 -38.6691,-8.43965 -98.646,-11.03641 -142.21107,-6.15717 -68.24687,7.64357 -124.53446,27.7215703 -163.74699,58.40917 -24.99334,19.55971 -43.841618,44.10485 -52.606588,68.50687 -25.45013,70.854065 7.29801,141.900085 84.697988,183.749505 l 8.78858,4.7519 -0.65999,4.12331 c -2.05846,12.86022 -9.95809,35.95328 -16.55587,48.39794 -6.76882,12.76725 -6.59264,14.01999 1.6633,11.82714 24.56752,-6.52535 55.29208,-21.66086 76.81408,-37.84011 l 7.89452,-5.93473 8.10548,1.99632 c 10.41648,2.56549 29.72172,5.67974 45.60549,7.35689 18.83424,1.9887 71.74574,1.67522 89.5,-0.53024 15.95228,-1.98162 37.54811,-5.88107 45.26965,-8.17412 l 5.23035,-1.55321 v -55.77976 c 0,-61.9245 0.0365,-62.3206 6.43397,-69.79458 2.0236,-2.36413 5.63303,-4.99109 8.62794,-6.27946 l 5.1489,-2.21501 90.05066,0.0127 90.05066,0.0127 6.15132,3.02828 c 6.81832,3.35665 11.52451,8.81994 13.43663,15.59824 0.75343,2.67086 1.20517,20.90665 1.36335,55.03596 l 0.23657,51.04158 3.11693,3.95842 c 7.81861,9.92942 13.76374,29.42253 15.08629,49.46552 0.66815,10.12561 -1.44655,16.39726 -7.51502,22.28766 -16.17991,15.70515 -62.1575,27.64949 -83.84123,21.78078 z m 41.65303,-17.88471 c 31.55835,-9.42064 35.57823,-12.37558 35.39961,-26.0216 -0.18569,-14.18686 -7.1941,-39.11758 -12.48348,-44.40695 -4.82577,-4.82577 -11.30226,-2.80932 -13.43008,4.18146 -0.73096,2.40153 -0.7764,2.38024 -2.62952,-1.23186 -4.47172,-8.7163 -16.62474,-8.71214 -19.93968,0.007 l -0.9338,2.45607 -4.24152,-4.6603 c -6.01485,-6.60871 -11.13866,-7.31735 -16.21361,-2.2424 -1.94035,1.94017 -3.52792,4.24774 -3.52792,5.12774 0,0.88 -0.45,1.6 -1,1.6 -0.55,0 -1,-0.48138 -1,-1.06972 0,-1.22674 -8.26152,-24.57866 -10.65786,-30.12539 -3.53436,-8.18089 -9.58928,-10.71159 -14.31697,-5.9839 -4.70845,4.70844 -4.19553,9.32991 4.32058,38.92901 3.99565,13.8875 7.10274,25.25 6.90466,25.25 -0.19808,0 -2.92296,-1.73632 -6.05528,-3.85848 -16.06109,-10.88149 -21.87483,-12.55273 -26.74058,-7.68697 -5.62065,5.62064 -2.18341,12.89479 12.8798,27.25714 25.12006,23.9513 31.76276,27.54822 49.66565,26.89324 8.64297,-0.3162 12.88761,-1.09688 24,-4.41409 z M 526.6721,349.11038 c 2.18298,-0.83768 1.9896,-2.5202 -0.91821,-7.98903 -5.07001,-9.53539 -2.77209,-22.04284 5.16193,-28.09605 3.2838,-2.50535 4.55095,-2.82179 11.75923,-2.93658 l 8.07884,-0.12866 -0.17376,-2.87134 c -0.0956,-1.57924 -1.11992,-6.24635 -2.27632,-10.37135 -6.97205,-24.86992 -0.92366,-39 16.69398,-39 10.07001,0 15.73773,5.65996 20.5281,20.5 l 3.228,10 5.5,-0.25179 c 3.0397,-0.13916 7.86406,0.48613 10.78484,1.39784 4.31071,1.34558 5.99103,1.43807 9.11602,0.5018 5.31461,-1.5923 11.78427,-1.43352 16.60496,0.40752 4.92431,1.88061 9.13967,0.71387 10.00781,-2.77 0.31322,-1.25695 0.43829,-23.68079 0.27793,-49.83074 -0.32042,-52.25187 -0.11152,-50.49727 -6.51151,-54.6907 -2.5191,-1.65058 -8.20032,-1.76393 -88.41274,-1.76393 -85.12589,0 -85.74024,0.0144 -88.54398,2.07108 -6.64941,4.87775 -6.36833,1.04528 -6.08205,82.92892 0.2863,81.88853 -0.005,78.368 6.75987,81.74845 3.10978,1.55402 7.02031,1.74861 35.16706,1.75 17.41752,8.5e-4 32.38002,-0.27159 33.25,-0.60544 z M 655.69502,158.28351 c -1.06762,-0.78863 -5.59616,-2.91328 -10.06343,-4.72146 l -8.1223,-3.2876 -0.66164,-9.52854 c -1.8082,-26.0405 -5.63352,-41.895805 -14.6034,-60.528545 -5.55961,-11.54874 -11.3398,-20.77813 -17.71001,-28.27812 -3.73541,-4.39789 -4.3698,-5.72935 -3.80398,-7.98376 1.08657,-4.32922 7.30585,-17.23812 8.30502,-17.23812 3.28436,0 21.73027,22.3805 29.25896,35.5 13.74393,23.9502 19.59193,46.248445 20.65321,78.750005 0.62821,19.23883 0.47253,20.06767 -3.25243,17.31614 z"
         id="path20" />
    </g>
  </g>
</svg>
